<svg width="51" height="46" viewBox="0 0 51 46" fill="none" xmlns="http://www.w3.org/2000/svg">
<path d="M24.5702 43.423C20.9792 37.3389 12.4015 22.677 6.73925 11.9499C5.32433 9.2693 4.09922 6.849 3.18202 4.87765C3.16275 4.83622 3.14364 4.79505 3.12469 4.75413C3.36256 5.03053 3.61391 5.32662 3.87918 5.64331C8.48832 11.1458 12.185 15.3847 15.4303 18.2477C18.6685 21.1044 21.6813 22.7969 24.9284 22.8147C28.1693 22.8324 31.2496 21.1788 34.6181 18.3355C37.9973 15.4832 41.8943 11.2332 46.7721 5.66889C47.2147 5.16407 47.6211 4.71039 47.9932 4.3044C47.9211 4.45633 47.8464 4.61214 47.7692 4.77177C46.814 6.74652 45.5344 9.17376 44.0544 11.8636C38.1317 22.6277 29.1365 37.3528 25.3924 43.4276C25.1967 43.7452 24.7549 43.7361 24.5702 43.423Z" stroke="black" stroke-width="3"/>
</svg>
