<svg width="800" height="800" viewBox="0 0 800 800" fill="none" xmlns="http://www.w3.org/2000/svg">
<g clip-path="url(#clip0_60_2)">
<path 
d="M776.886 138.125L661.833 23.1141C631.019 -7.68593 581.136 -7.71406 550.309 23.0859L475.727 97.6688L111.272 462.206C96.161 477.316 84.6063 495.552 77.375 515.645L3.50472 721.239C-4.19841 742.694 1.16097 766.652 17.2813 782.772C33.3891 798.88 57.375 804.241 78.8157 796.522L284.383 722.627C304.477 715.408 322.725 703.827 337.822 688.742L682.83 343.719L682.844 343.733L702.344 324.205L776.886 249.634L776.913 249.608C807.592 218.822 807.713 168.966 776.886 138.125ZM150.273 501.208L512.009 139.405L576.545 203.941L209.234 571.252L145.034 507.066C146.717 505.059 148.414 503.066 150.273 501.208ZM265.73 670.709L134.745 717.792L82.236 665.281L129.305 534.309C129.641 533.353 130.113 532.45 130.475 531.508L268.517 669.536C267.575 669.914 266.672 670.372 265.73 670.709ZM298.819 649.741C296.959 651.586 294.967 653.295 292.961 654.98L228.733 590.755L596.045 223.442L660.567 287.964L298.819 649.741ZM737.87 210.647L682.83 265.702L680.069 268.462L531.509 119.903L589.325 62.0875C598.564 52.8891 613.553 52.8766 622.833 62.1281L737.872 177.127C747.125 186.352 747.138 201.342 737.831 210.673L737.87 210.647Z" fill="black"/>
</g>
<defs>
<clipPath id="clip0_60_2">
<rect width="800" height="800" fill=""/>
</clipPath>
</defs>
</svg>
