<svg width="48" height="45" viewBox="0 0 48 45" fill="none" xmlns="http://www.w3.org/2000/svg">
<path d="M8 2.5H40C43.0376 2.5 45.5 4.96243 45.5 8V34C45.5 35.933 43.933 37.5 42 37.5H8C4.96243 37.5 2.5 35.0376 2.5 32V8C2.5 4.96243 4.96243 2.5 8 2.5Z" stroke="#979696" stroke-width="5"/>
<rect x="10" y="17" width="6" height="6" rx="3" fill="#979696"/>
<rect x="21" y="17" width="6" height="6" rx="3" fill="#979696"/>
<rect x="32" y="17" width="6" height="6" rx="3" fill="#979696"/>

<path id='last__path' fill='#979696' d="M42 39.2381C42 39.6571 46 43.254 48 45C47.418 43.8145 46.6103 40.0994 47.8762 34.5238C47.1525 37.6667 42 38.7143 42 39.2381Z"/>

</svg>
