<svg width="40" height="40" viewBox="0 0 40 40" fill="none" xmlns="http://www.w3.org/2000/svg">
<g filter="url(#filter0_i_0_1)">
<circle cx="20" cy="20" r="19" stroke="black" stroke-width="2"/>
</g>
<path d="M28.6301 20.5811C29.0949 20.8795 29.7135 20.7446 30.0119 20.2799C30.3102 19.8151 30.1754 19.1965 29.7106 18.8981L28.6301 20.5811ZM13.4597 10.8415L28.6301 20.5811L29.7106 18.8981L14.5403 9.1585L13.4597 10.8415Z" fill="black"/>
<path d="M30.0852 20.8698C30.5447 20.5635 30.6689 19.9426 30.3626 19.4831C30.0562 19.0235 29.4353 18.8994 28.9758 19.2057L30.0852 20.8698ZM15.0852 30.8698L30.0852 20.8698L28.9758 19.2057L13.9758 29.2057L15.0852 30.8698Z" fill="black"/>
<defs>
<filter id="filter0_i_0_1" x="0" y="0" width="40" height="44" filterUnits="userSpaceOnUse" color-interpolation-filters="sRGB">
<feFlood flood-opacity="0" result="BackgroundImageFix"/>
<feBlend mode="normal" in="SourceGraphic" in2="BackgroundImageFix" result="shape"/>
<feColorMatrix in="SourceAlpha" type="matrix" values="0 0 0 0 0 0 0 0 0 0 0 0 0 0 0 0 0 0 127 0" result="hardAlpha"/>
<feOffset dy="4"/>
<feGaussianBlur stdDeviation="2"/>
<feComposite in2="hardAlpha" operator="arithmetic" k2="-1" k3="1"/>
<feColorMatrix type="matrix" values="0 0 0 0 0 0 0 0 0 0 0 0 0 0 0 0 0 0 0.25 0"/>
<feBlend mode="normal" in2="shape" result="effect1_innerShadow_0_1"/>
</filter>
</defs>
</svg>
