<svg width="40" height="44" viewBox="0 0 40 44" fill="none" xmlns="http://www.w3.org/2000/svg">
<path d="M15.75 22L20 26.2222L24.25 30.4444M24.25 22L15.75 30.4444M3 9.33333H37M28.5 9.33333L27.925 7.61926C27.3676 5.95819 27.0888 5.12766 26.572 4.51362C26.1155 3.97139 25.5295 3.55168 24.8673 3.29298C24.1174 3 23.2364 3 21.4739 3H18.5261C16.7636 3 15.8826 3 15.1327 3.29298C14.4706 3.55168 13.8844 3.97139 13.428 4.51362C12.9111 5.12766 12.6325 5.95819 12.0751 7.61926L11.5 9.33333M32.75 9.33333V30.8667C32.75 34.4138 32.75 36.1871 32.0551 37.542C31.444 38.7337 30.4688 39.7025 29.2692 40.3097C27.9054 41 26.1204 41 22.55 41H17.45C13.8797 41 12.0945 41 10.7308 40.3097C9.53127 39.7025 8.55603 38.7337 7.94483 37.542C7.25 36.1871 7.25 34.4138 7.25 30.8667V9.33333" stroke="black" stroke-width="5" stroke-linecap="round" stroke-linejoin="round"/>
</svg>
